<?xml version="1.0" standalone="no"?>
<!DOCTYPE svg PUBLIC "-//W3C//DTD SVG 20010904//EN"
 "http://www.w3.org/TR/2001/REC-SVG-20010904/DTD/svg10.dtd">
<svg version="1.0" xmlns="http://www.w3.org/2000/svg"
 width="180.000000pt" height="180.000000pt" viewBox="0 0 180.000000 180.000000"
 preserveAspectRatio="xMidYMid meet">
<metadata>
Created by potrace 1.14, written by Peter Selinger 2001-2017
</metadata>
<g transform="translate(0.000000,180.000000) scale(0.100000,-0.100000)"
fill="#000000" stroke="none">
<path d="M0 1420 c0 -209 4 -380 9 -380 4 0 5 -19 0 -42 -4 -24 -8 -70 -7
-103 l1 -60 7 60 c48 360 251 632 570 762 126 52 201 66 345 65 106 0 148 -5
226 -25 91 -24 230 -85 244 -107 3 -6 11 -7 17 -4 6 4 8 3 5 -3 -7 -11 102
-110 116 -105 5 1 6 -2 2 -7 -5 -9 29 -60 82 -125 30 -38 133 -263 157 -346
l25 -85 0 125 c0 135 4 120 -78 271 -34 63 -93 135 -159 194 -120 108 -224
163 -390 206 -111 29 -124 31 -262 26 -209 -7 -354 -53 -528 -167 -46 -30 -59
-35 -50 -20 9 14 10 23 2 28 -9 6 -11 36 -6 80 1 6 11 12 22 12 19 0 41 19 77
63 10 12 9 18 -2 27 -8 7 -15 19 -15 26 0 11 -38 14 -205 14 l-205 0 0 -380z"/>
<path d="M1024 1784 c3 -9 6 -20 6 -25 0 -5 7 -9 16 -9 11 0 14 5 10 16 -3 9
-6 20 -6 25 0 5 -7 9 -16 9 -11 0 -14 -5 -10 -16z"/>
<path d="M1240 1783 c1 -42 16 -46 59 -18 22 15 41 29 41 31 0 2 -22 4 -50 4
-41 0 -50 -3 -50 -17z"/>
<path d="M1590 1775 c0 -15 4 -24 10 -20 6 3 10 12 10 20 0 8 -4 17 -10 20 -6
4 -10 -5 -10 -20z"/>
<path d="M1755 1769 c-14 -17 -23 -34 -20 -37 6 -6 65 48 65 60 0 17 -19 7
-45 -23z"/>
<path d="M1600 1727 c0 -25 23 -68 53 -95 19 -18 41 -25 86 -29 78 -7 83 12 6
22 -62 7 -109 40 -131 90 -8 19 -13 23 -14 12z"/>
<path d="M415 1660 c-11 -13 -14 -20 -6 -20 13 0 41 24 41 34 0 12 -18 5 -35
-14z"/>
<path d="M1066 1534 c-54 -17 -111 -51 -139 -82 -18 -20 -18 -20 -80 12 -58
29 -69 31 -167 31 -93 0 -113 -4 -175 -29 -127 -53 -253 -207 -296 -361 -8
-30 -14 -94 -13 -160 0 -92 5 -121 25 -176 57 -151 177 -280 292 -314 149 -44
320 0 442 116 l31 29 93 -48 c92 -47 93 -47 189 -46 119 1 188 25 260 89 56
50 113 151 137 241 36 133 9 321 -64 444 -44 73 -143 173 -211 213 -93 54
-226 71 -324 41z m239 -19 c190 -53 366 -308 365 -529 -1 -137 -59 -284 -146
-366 -79 -74 -128 -93 -245 -94 -93 -1 -97 0 -184 43 -78 38 -87 46 -71 55
177 103 218 369 94 609 -26 49 -57 92 -86 117 -42 37 -49 40 -105 40 -58 0
-62 -1 -103 -45 -63 -65 -94 -169 -94 -314 0 -202 70 -342 201 -400 l41 -19
-63 -51 c-97 -78 -137 -93 -257 -99 -102 -5 -103 -5 -177 32 -90 44 -161 119
-210 221 -43 89 -54 140 -55 240 0 157 54 290 161 398 151 151 341 176 516 66
21 -13 26 -11 65 28 86 84 209 107 353 68z m-317 -154 c45 -23 61 -40 100
-108 39 -66 70 -167 78 -252 5 -58 4 -69 -16 -94 -26 -33 -62 -53 -113 -62
l-37 -7 0 47 c0 48 -13 85 -31 85 -6 0 -10 -26 -8 -67 l2 -68 -57 3 c-59 2
-121 27 -147 58 -24 29 -18 232 9 322 30 96 89 162 146 162 20 0 53 -9 74 -19z
m163 -504 c-6 -8 -8 -17 -4 -20 3 -4 1 -7 -5 -7 -14 0 -14 2 -6 24 3 9 11 16
16 16 7 0 6 -5 -1 -13z m-331 -31 c0 -10 -30 0 -34 11 -4 11 -1 11 14 3 11 -6
20 -12 20 -14z m254 -21 c-23 -36 -45 -45 -103 -45 -42 0 -56 5 -83 30 l-33
30 60 -5 c33 -4 78 -2 100 3 22 6 48 10 58 11 16 1 16 0 1 -24z m56 11 c0 -3
-4 -8 -10 -11 -5 -3 -10 -1 -10 4 0 6 5 11 10 11 6 0 10 -2 10 -4z m-312 -31
c-3 -3 -9 2 -12 12 -6 14 -5 15 5 6 7 -7 10 -15 7 -18z m293 -22 c-12 -20 -14
-14 -5 12 4 9 9 14 11 11 3 -2 0 -13 -6 -23z m-120 -31 c44 3 56 1 52 -9 -7
-19 -51 -27 -76 -15 -12 6 -38 15 -57 21 -32 10 -33 9 -15 -4 11 -8 26 -19 33
-25 6 -6 18 -10 25 -9 23 3 40 -1 34 -8 -4 -3 -25 -7 -48 -8 -28 -2 -36 1 -27
7 11 8 11 10 0 15 -7 3 -25 16 -40 29 -20 18 -22 22 -8 17 14 -5 17 -3 12 6
-5 8 4 6 25 -4 23 -12 49 -16 90 -13z m85 2 c-5 -18 -3 -24 5 -19 23 15 -10
-32 -35 -48 -31 -21 -87 -26 -93 -9 -3 6 0 12 7 12 6 0 8 -4 5 -10 -10 -16 11
-12 25 5 7 9 21 13 31 10 9 -3 20 -1 24 5 3 5 2 10 -4 10 -9 0 28 68 38 70 2
0 0 -12 -3 -26z"/>
<path d="M1360 1139 c-53 -16 -108 -60 -130 -104 -26 -52 -10 -57 40 -11 45
41 120 66 197 66 58 0 66 11 28 36 -31 20 -90 26 -135 13z"/>
<path d="M441 1050 c-37 -9 -82 -39 -89 -59 -3 -10 7 -11 44 -4 92 15 162 7
228 -26 33 -16 63 -28 65 -25 12 12 -32 61 -76 85 -54 30 -121 41 -172 29z"/>
<path d="M1055 700 c-3 -5 -1 -10 4 -10 6 0 11 5 11 10 0 6 -2 10 -4 10 -3 0
-8 -4 -11 -10z"/>
<path d="M1 538 c-1 -74 26 -187 66 -278 13 -30 26 -71 28 -90 2 -19 6 -47 10
-61 6 -26 5 -27 -49 -33 -56 -7 -56 -8 -56 -42 l0 -34 130 0 129 0 -45 47
c-87 89 -182 320 -203 493 l-8 65 -2 -67z"/>
<path d="M1783 488 c-84 -253 -114 -324 -127 -306 -6 8 -27 23 -46 34 -19 10
-42 24 -50 30 -42 32 -133 54 -219 54 -109 0 -192 -24 -268 -76 l-54 -37 -72
29 c-60 24 -85 29 -157 28 -171 -1 -340 -85 -340 -168 0 -26 42 -76 63 -76 16
0 17 3 8 14 -7 8 -8 16 -4 18 4 3 3 4 -3 2 -17 -4 -34 17 -34 40 0 49 156 145
217 133 12 -2 24 -1 25 3 2 4 20 10 41 13 23 4 35 2 31 -4 -3 -6 10 -7 35 -3
26 4 41 3 41 -4 0 -6 11 -9 25 -8 14 2 30 -3 36 -10 6 -8 22 -14 35 -14 12 0
25 -4 28 -9 9 -15 56 -20 56 -6 0 7 16 20 35 29 19 9 35 21 35 26 0 4 10 6 23
3 17 -4 19 -2 8 5 -18 13 66 40 151 49 100 10 238 -28 254 -72 11 -28 -6 -64
-56 -118 -42 -45 -54 -54 -77 -50 -20 3 -24 2 -14 -5 11 -8 10 -12 -5 -21 -14
-8 34 -10 189 -11 l207 0 0 260 c0 143 -1 260 -3 260 -2 0 -8 -15 -14 -32z"/>
<path d="M7 313 c-2 -4 -1 -17 4 -28 7 -18 8 -18 8 5 1 20 3 22 12 10 9 -12
10 -12 7 -1 -5 17 -24 26 -31 14z"/>
<path d="M176 211 c45 -84 129 -200 150 -208 29 -11 27 8 -3 40 -17 17 -51 64
-76 102 -67 102 -91 134 -100 135 -5 0 8 -31 29 -69z"/>
<path d="M1435 250 c-3 -5 -1 -10 4 -10 6 0 11 5 11 10 0 6 -2 10 -4 10 -3 0
-8 -4 -11 -10z"/>
<path d="M1460 235 c-8 -9 -6 -14 6 -19 24 -9 31 -7 14 5 -11 8 -8 9 14 4 17
-3 36 -14 43 -23 13 -15 13 -15 4 4 -14 29 -66 48 -81 29z"/>
<path d="M880 179 c0 -5 5 -7 10 -4 6 3 10 8 10 11 0 2 -4 4 -10 4 -5 0 -10
-5 -10 -11z"/>
<path d="M605 170 c-3 -5 -1 -10 4 -10 6 0 11 5 11 10 0 6 -2 10 -4 10 -3 0
-8 -4 -11 -10z"/>
<path d="M995 140 c-3 -5 1 -10 9 -10 8 0 18 5 21 10 3 6 -1 10 -9 10 -8 0
-18 -4 -21 -10z"/>
<path d="M1030 110 c0 -19 3 -21 12 -12 9 9 9 15 0 24 -9 9 -12 7 -12 -12z"/>
<path d="M1068 123 c7 -3 16 -2 19 1 4 3 -2 6 -13 5 -11 0 -14 -3 -6 -6z"/>
<path d="M1288 113 c7 -3 16 -2 19 1 4 3 -2 6 -13 5 -11 0 -14 -3 -6 -6z"/>
<path d="M520 102 c0 -14 11 -21 26 -15 8 3 11 9 8 14 -7 11 -34 12 -34 1z"/>
<path d="M1198 100 c-126 -6 -150 -12 -132 -30 30 -29 172 -25 257 9 27 11 38
32 15 29 -7 0 -70 -4 -140 -8z"/>
<path d="M490 83 c0 -6 8 -17 18 -24 16 -13 16 -13 2 6 -8 11 -16 22 -17 24
-2 2 -3 0 -3 -6z"/>
<path d="M858 83 c7 -3 16 -2 19 1 4 3 -2 6 -13 5 -11 0 -14 -3 -6 -6z"/>
<path d="M720 69 c0 -5 5 -7 10 -4 6 3 10 8 10 11 0 2 -4 4 -10 4 -5 0 -10 -5
-10 -11z"/>
<path d="M800 73 c0 -9 -49 -33 -67 -33 -7 0 -13 -4 -13 -10 0 -5 19 -11 43
-12 l42 -1 -45 -7 c-29 -4 -35 -8 -18 -8 91 -6 258 40 258 70 0 11 -118 5
-169 -9 -17 -4 -22 -3 -17 5 4 7 2 12 -3 12 -6 0 -11 -3 -11 -7z"/>
<path d="M1010 59 c0 -5 5 -7 10 -4 6 3 10 8 10 11 0 2 -4 4 -10 4 -5 0 -10
-5 -10 -11z"/>
<path d="M1308 53 c6 -2 18 -2 25 0 6 3 1 5 -13 5 -14 0 -19 -2 -12 -5z"/>
<path d="M1056 42 c-3 -6 -22 -13 -41 -16 -55 -11 -41 -23 25 -23 54 -1 59 1
43 13 -17 13 -17 14 2 7 21 -7 20 -5 -7 15 -9 8 -19 9 -22 4z"/>
</g>
</svg>
