<?xml version="1.0" standalone="no"?>
<!DOCTYPE svg PUBLIC "-//W3C//DTD SVG 20010904//EN"
 "http://www.w3.org/TR/2001/REC-SVG-20010904/DTD/svg10.dtd">
<svg version="1.0" xmlns="http://www.w3.org/2000/svg"
 width="500.000000pt" height="500.000000pt" viewBox="0 0 500.000000 500.000000"
 preserveAspectRatio="xMidYMid meet">
<metadata>
Created by potrace 1.14, written by Peter Selinger 2001-2017
</metadata>
<g transform="translate(0.000000,500.000000) scale(0.100000,-0.100000)"
fill="#000000" stroke="none">
<path d="M1669 3640 c-336 -40 -656 -269 -836 -600 -57 -105 -89 -201 -113
-336 -60 -348 15 -663 222 -928 32 -42 62 -76 67 -76 4 0 13 53 20 118 6 64
14 126 16 137 2 11 4 26 4 34 1 7 38 -25 84 -70 146 -147 308 -242 502 -295
82 -22 122 -27 225 -28 130 -1 230 16 230 39 0 6 -5 27 -11 44 -9 26 -16 32
-33 27 -11 -3 -73 -8 -136 -12 -125 -7 -134 1 -35 30 96 29 165 57 165 66 0 5
-5 21 -12 37 -14 33 -15 39 -17 57 -1 10 -15 16 -38 18 -32 3 -26 5 42 19 160
33 295 104 423 223 118 110 252 291 296 399 21 53 23 55 43 39 62 -51 108
-155 122 -275 l8 -72 20 45 c12 25 37 79 56 121 l35 76 -74 57 c-41 31 -75 64
-75 72 -2 23 -4 28 -13 43 -6 9 -5 12 0 8 6 -3 10 5 10 18 0 13 -4 21 -8 19
-5 -3 -5 -10 -2 -16 4 -7 2 -8 -5 -4 -6 4 -9 11 -6 16 3 5 1 12 -5 15 -8 5 -7
12 2 23 7 9 8 13 2 9 -7 -4 -15 3 -19 16 -11 34 -12 41 -4 52 4 6 -18 39 -50
75 -38 43 -62 81 -71 112 -8 26 -18 44 -24 41 -5 -3 -6 -1 -2 6 4 6 0 34 -9
61 -14 41 -27 57 -83 98 -270 200 -532 292 -821 292 -249 -1 -475 -86 -634
-239 -84 -80 -129 -141 -184 -246 -51 -97 -56 -91 -9 10 49 107 124 210 212
294 82 77 124 98 318 162 167 55 408 61 585 15 47 -12 52 -12 49 3 -2 11 -35
26 -96 46 -79 26 -92 33 -89 50 1 11 7 19 12 19 6 -1 49 -5 98 -8 98 -8 118 6
35 24 -136 29 -257 35 -389 20z m381 -495 c109 -35 196 -79 317 -161 100 -68
313 -233 313 -243 0 -8 -77 -156 -123 -236 -151 -263 -293 -424 -443 -502
-106 -55 -188 -76 -304 -76 -82 -1 -106 3 -177 29 -111 41 -184 87 -263 165
-121 118 -190 308 -176 480 24 289 205 501 481 565 95 22 270 12 375 -21z"/>
<path d="M1670 3088 c-110 -19 -241 -113 -312 -222 -50 -77 -49 -91 2 -27 88
111 222 177 396 196 75 9 83 31 15 41 -25 4 -48 10 -51 13 -3 4 -25 4 -50 -1z"/>
<path d="M2372 2357 c-61 -83 -202 -205 -300 -259 -90 -50 -59 -48 44 2 99 49
185 125 249 220 52 76 58 107 7 37z"/>
<path d="M3555 3530 c-213 -34 -450 -170 -591 -340 l-54 -64 32 -33 c18 -18
35 -33 38 -33 10 0 150 167 150 178 0 6 29 37 66 70 76 69 196 136 280 156 61
15 218 30 174 17 -17 -5 2 -9 64 -13 50 -3 92 -11 96 -17 4 -7 19 -49 35 -95
28 -82 28 -83 84 -112 115 -60 251 -231 251 -315 0 -15 4 -30 9 -33 28 -18 54
-218 37 -288 -3 -13 1 -7 10 12 47 102 55 291 19 425 -49 177 -182 347 -335
425 -98 50 -261 77 -365 60z"/>
<path d="M3099 3421 c-72 -30 -102 -49 -196 -125 -60 -47 -62 -50 -46 -68 9
-10 21 -18 26 -18 5 0 42 31 81 68 40 37 102 90 139 116 37 26 67 50 67 52 0
5 6 7 -71 -25z"/>
<path d="M3234 3142 c-57 -45 -164 -160 -164 -176 0 -13 128 -142 133 -135 2
2 17 27 34 54 26 43 32 66 43 168 6 65 10 121 7 123 -2 3 -26 -13 -53 -34z"/>
<path d="M4070 3027 c0 -2 15 -16 33 -33 l32 -29 -29 33 c-28 30 -36 37 -36
29z"/>
<path d="M3331 2204 c16 -20 170 -91 222 -103 55 -13 198 -15 239 -4 46 13 36
28 -19 31 -29 2 -53 7 -53 11 0 5 -42 12 -92 16 -51 4 -141 19 -200 34 -65 16
-103 22 -97 15z"/>
</g>
</svg>
