<?xml version="1.0" standalone="no"?>
<!DOCTYPE svg PUBLIC "-//W3C//DTD SVG 20010904//EN"
 "http://www.w3.org/TR/2001/REC-SVG-20010904/DTD/svg10.dtd">
<svg version="1.0" xmlns="http://www.w3.org/2000/svg"
 width="500.000000pt" height="500.000000pt" viewBox="0 0 500.000000 500.000000"
 preserveAspectRatio="xMidYMid meet">
<metadata>
Created by potrace 1.14, written by Peter Selinger 2001-2017
</metadata>
<g transform="translate(0.000000,500.000000) scale(0.100000,-0.100000)"
fill="#000000" stroke="none">
<path d="M0 2500 l0 -2500 2500 0 2500 0 0 2500 0 2500 -2500 0 -2500 0 0
-2500z m2648 896 c-2 -19 -5 -22 -15 -15 -7 6 -16 8 -22 5 -5 -3 -7 3 -4 14 8
30 43 26 41 -4z m273 -41 c-1 -15 -24 -12 -29 3 -3 9 2 13 12 10 10 -1 17 -7
17 -13z m74 -25 c3 -5 1 -10 -4 -10 -6 0 -11 5 -11 10 0 6 2 10 4 10 3 0 8 -4
11 -10z m-468 -19 c-3 -12 9 -33 34 -61 41 -44 48 -60 27 -60 -16 0 -71 -67
-64 -78 2 -4 -13 -15 -33 -25 -21 -10 -58 -36 -82 -57 l-44 -39 34 9 c19 5 41
16 50 24 9 8 19 14 22 13 13 -4 108 68 98 74 -5 3 20 14 56 23 36 10 65 22 65
27 0 11 37 12 42 1 7 -16 76 -52 102 -52 16 0 26 -6 26 -14 0 -15 97 -76 128
-80 9 -2 17 -8 17 -14 0 -18 107 -123 120 -118 14 5 13 -6 -3 -44 -8 -18 -11
-20 -11 -8 -1 15 -8 12 -46 -14 -44 -31 -50 -48 -15 -48 30 0 50 11 50 28 0
26 12 5 15 -26 2 -35 73 -152 91 -152 8 0 14 -4 14 -8 0 -11 80 -38 99 -34 16
4 16 3 -29 -73 -19 -33 -35 -62 -35 -65 0 -2 20 -13 45 -23 41 -16 31 -17 -27
-1 -22 6 -22 6 -7 -40 9 -25 20 -44 25 -40 5 3 6 -1 4 -8 -3 -8 8 -27 25 -43
28 -27 43 -64 19 -50 -5 4 -20 -1 -32 -12 -20 -18 -20 -17 1 11 21 27 21 30 6
48 -20 21 -40 23 -48 6 -3 -7 -3 -3 0 10 5 20 2 22 -41 22 l-47 0 6 -52 5 -53
-12 50 c-15 56 -15 56 -95 20 -55 -25 -66 -27 -68 -10 -1 17 -37 85 -45 85 -9
0 -69 -103 -69 -119 0 -6 -8 -19 -17 -29 -10 -10 -24 -27 -31 -38 -7 -10 -5
-5 3 13 8 18 15 34 15 37 0 4 -100 -20 -105 -26 -1 -2 -17 -31 -34 -65 -21
-42 -27 -63 -19 -64 10 0 10 -2 0 -6 -6 -2 -9 -10 -5 -16 4 -8 1 -7 -9 1 -11
8 -30 10 -59 6 -74 -11 -75 -20 -6 -38 83 -20 91 -20 83 2 -5 15 -4 15 8 -2 9
-10 20 -15 27 -10 8 4 10 3 5 -4 -4 -7 0 -12 11 -13 17 -1 17 -2 0 -6 -9 -2
-14 -9 -11 -15 4 -6 -6 -4 -22 5 -23 13 -170 57 -189 57 -9 0 -26 -52 -31 -99
-3 -25 -7 -48 -10 -50 -2 -2 1 -10 7 -17 8 -9 5 -12 -13 -9 -18 2 -114 25
-125 30 -1 1 2 14 6 31 6 20 10 23 10 9 1 -15 14 -7 61 40 33 33 60 65 60 71
0 6 -10 19 -22 29 -22 16 -22 16 5 0 l27 -16 -5 43 c-4 39 -4 40 4 10 5 -18
11 -35 13 -37 4 -5 78 88 78 98 0 8 -79 29 -108 29 -13 0 -46 -10 -73 -22 -41
-20 -47 -26 -36 -39 10 -12 9 -13 -2 -7 -8 5 -16 4 -21 -4 -5 -9 -10 -6 -15
11 -4 13 -15 32 -23 42 -16 18 -17 18 -23 0 -7 -16 -8 -16 -8 3 -1 14 17 38
49 65 27 24 50 50 50 57 0 7 13 12 33 12 50 0 192 53 190 71 -3 18 63 52 142
74 33 9 66 18 74 21 15 5 -112 104 -133 104 -11 0 -60 -84 -61 -105 -1 -18
-16 -35 -32 -35 -9 0 -13 6 -10 14 3 8 0 22 -8 33 -13 17 -15 17 -47 -12 -18
-16 -41 -38 -50 -48 -17 -18 -19 -18 -54 10 -21 15 -38 26 -38 24 -1 -2 -20 6
-43 18 -54 27 -56 27 -69 -7 -10 -26 -9 -28 10 -27 12 1 14 0 5 -2 -28 -7
-217 -204 -212 -222 1 -4 -7 -12 -17 -19 -17 -10 -18 -9 -11 10 8 23 -13 169
-31 205 l-11 22 -68 -35 c-38 -19 -69 -38 -69 -42 0 -7 75 -72 84 -72 2 0 14
30 26 66 12 36 24 63 26 61 3 -2 -7 -35 -20 -73 -14 -37 -24 -69 -23 -70 1 0
11 -6 22 -13 18 -10 17 -11 -8 -5 -23 5 -35 1 -63 -27 -19 -18 -34 -38 -34
-44 0 -14 59 -85 71 -85 5 0 10 8 10 18 1 16 2 16 6 -1 2 -9 8 -15 13 -12 4 3
6 -4 3 -15 -3 -11 -11 -20 -19 -20 -7 0 -28 -20 -46 -45 -18 -24 -37 -43 -42
-42 -4 2 -9 34 -11 72 -2 39 -4 78 -4 89 -1 16 -3 17 -18 5 -16 -13 -17 -12
-5 3 22 27 5 40 -45 34 -56 -6 -60 -9 -42 -43 22 -45 22 -50 0 -18 -11 17 -26
30 -33 30 -18 0 -16 30 2 31 8 1 22 2 30 3 36 3 40 15 25 69 -7 29 -19 59 -25
67 -13 16 -7 20 43 29 21 4 40 13 43 21 3 7 -4 35 -15 61 -25 55 -26 74 -7 74
18 0 146 137 146 156 0 8 6 14 14 14 7 0 67 52 132 115 66 63 126 117 134 120
8 3 32 20 53 39 36 30 38 34 22 49 -18 18 -17 19 39 32 23 5 27 8 15 16 -12 7
-11 9 4 9 21 0 22 10 2 36 -14 18 -18 15 -90 -61 -41 -44 -77 -88 -81 -98 -4
-11 -12 -16 -27 -12 -60 13 -72 11 -75 -14 -2 -13 1 -28 7 -34 15 -15 14 -27
-2 -27 -9 0 -14 12 -15 31 -1 52 -17 57 -58 18 -33 -31 -35 -38 -31 -81 4 -43
2 -48 -16 -48 -16 0 -18 3 -9 12 7 7 12 27 12 45 l0 34 -57 -42 c-32 -23 -62
-45 -66 -49 -5 -4 16 -6 45 -4 l53 3 -59 -9 c-33 -6 -63 -13 -68 -18 -4 -4 -9
-38 -10 -75 -2 -57 -5 -66 -18 -61 -8 4 -28 8 -45 8 -24 1 -33 -6 -52 -39 -30
-53 -29 -65 7 -65 18 0 30 5 30 13 0 8 7 14 14 14 11 0 13 -5 5 -19 -6 -11
-21 -18 -40 -18 -42 0 -64 -14 -79 -50 -7 -17 -15 -29 -17 -26 -2 2 3 18 12
36 20 39 16 50 -25 74 -31 18 -32 18 -27 0 4 -11 9 -32 12 -49 17 -77 23 -85
79 -87 l51 -1 -50 -6 c-54 -6 -55 -9 -44 -80 3 -18 -1 -24 -16 -26 -28 -2 -98
-26 -110 -36 -15 -14 -38 -10 -32 5 8 21 -42 178 -61 192 -15 11 -15 14 -1 31
9 10 38 77 64 148 25 72 51 137 56 145 55 94 89 160 89 174 0 9 5 16 11 16 15
0 129 81 129 91 0 5 6 9 13 9 12 0 102 86 154 146 13 16 66 34 201 68 166 43
191 47 258 41 49 -4 74 -2 74 4 0 6 10 11 21 11 16 0 20 -5 16 -19z m186 -23
c-8 -14 -35 -9 -30 6 3 7 0 19 -6 26 -7 7 0 5 14 -6 15 -10 25 -22 22 -26z
m367 -38 c0 -5 -2 -10 -4 -10 -3 0 -8 5 -11 10 -3 6 -1 10 4 10 6 0 11 -4 11
-10z m-310 -10 c0 -5 -5 -10 -11 -10 -5 0 -7 5 -4 10 3 6 8 10 11 10 2 0 4 -4
4 -10z m205 -9 c3 -6 -4 -15 -15 -21 -20 -11 -21 -10 -10 9 12 23 16 25 25 12z
m165 -66 c0 -8 -6 -15 -14 -15 -17 0 -28 14 -19 24 12 12 33 6 33 -9z m-142
-46 c-2 -6 -8 -10 -13 -10 -5 0 -11 4 -13 10 -2 6 4 11 13 11 9 0 15 -5 13
-11z m272 -43 c0 -3 -4 -8 -10 -11 -5 -3 -10 -1 -10 4 0 6 5 11 10 11 6 0 10
-2 10 -4z m230 -66 c0 -5 -7 -10 -15 -10 -8 0 -15 5 -15 10 0 6 7 10 15 10 8
0 15 -4 15 -10z m-300 -50 c9 -17 8 -20 -9 -20 -22 0 -35 15 -26 30 10 16 23
12 35 -10z m120 -81 c0 -5 -7 -9 -15 -9 -15 0 -20 12 -9 23 8 8 24 -1 24 -14z
m98 -142 c2 -10 -3 -17 -12 -17 -10 0 -16 9 -16 21 0 24 23 21 28 -4z m146
-28 c-3 -5 -10 -7 -15 -3 -5 3 -7 10 -3 15 3 5 10 7 15 3 5 -3 7 -10 3 -15z
m-74 -103 c0 -8 -4 -17 -9 -21 -12 -7 -24 12 -16 25 9 15 25 12 25 -4z m-1123
-152 c-3 -3 -12 -4 -19 -1 -8 3 -5 6 6 6 11 1 17 -2 13 -5z m1173 -12 c0 -13
-12 -22 -22 -16 -10 6 -1 24 13 24 5 0 9 -4 9 -8z m-150 -49 c0 -5 -12 -13
-26 -20 -21 -10 -23 -9 -15 1 6 7 8 16 4 19 -3 4 3 7 15 7 12 0 22 -3 22 -7z
m-886 -39 c3 -8 2 -12 -4 -9 -6 3 -10 10 -10 16 0 14 7 11 14 -7z m994 -15
c-2 -6 -8 -10 -13 -10 -5 0 -11 4 -13 10 -2 6 4 11 13 11 9 0 15 -5 13 -11z
m-257 -118 c-26 -49 -26 -58 -3 -40 15 12 15 11 -1 -8 -18 -21 -18 -21 0 -26
13 -4 12 -5 -6 -6 -14 0 -33 -9 -44 -18 -11 -10 -17 -12 -13 -5 4 7 2 12 -6
12 -10 0 -9 3 1 9 8 5 16 22 19 38 2 15 6 30 9 33 3 3 4 -7 1 -22 -7 -39 4
-28 32 31 13 28 25 49 27 47 3 -2 -5 -22 -16 -45z m-130 -1 c32 -23 59 -43 59
-46 0 -2 -28 14 -62 37 -74 50 -73 49 -64 49 4 0 34 -18 67 -40z m-1134 8 c-3
-8 -6 -5 -6 6 -1 11 2 17 5 13 3 -3 4 -12 1 -19z m10 -70 c-2 -13 -4 -5 -4 17
-1 22 1 32 4 23 2 -10 2 -28 0 -40z m243 12 c0 -5 -2 -10 -4 -10 -3 0 -8 5
-11 10 -3 6 -1 10 4 10 6 0 11 -4 11 -10z m277 -22 c-3 -7 -5 -2 -5 12 0 14 2
19 5 13 2 -7 2 -19 0 -25z m852 -12 c-2 -2 -26 -1 -54 2 l-50 7 45 5 c40 5 71
-2 59 -14z m-1531 -24 c14 11 14 10 -1 -8 -17 -20 -16 -22 5 -50 l23 -29 -33
28 c-19 15 -39 27 -45 27 -7 0 -4 5 6 11 9 5 18 22 18 37 l2 27 4 -28 c4 -25
7 -27 21 -15z m992 -2 c-6 -11 -9 -24 -8 -28 2 -4 -10 -20 -26 -37 -29 -29
-30 -29 -13 -3 l17 27 -33 4 -32 4 36 1 c28 2 38 8 47 27 6 14 14 25 17 25 3
0 1 -9 -5 -20z m-484 1 c20 17 17 5 -4 -14 -17 -15 -18 -15 -19 6 0 12 1 16 4
9 4 -10 8 -10 19 -1z m764 -11 c-8 -5 -19 -10 -25 -10 -5 0 -3 5 5 10 8 5 20
10 25 10 6 0 3 -5 -5 -10z m-723 -22 c-3 -8 -6 -5 -6 6 -1 11 2 17 5 13 3 -3
4 -12 1 -19z m-620 6 c-3 -3 -12 -4 -19 -1 -8 3 -5 6 6 6 11 1 17 -2 13 -5z
m1277 -22 c-15 -9 -73 -196 -75 -242 -2 -34 56 -191 73 -198 4 -2 8 -12 8 -23
0 -12 -5 -16 -15 -13 -8 4 -15 13 -15 21 0 8 -5 11 -10 8 -6 -4 -9 -2 -8 3 2
5 -46 78 -107 161 -87 120 -114 150 -129 147 -16 -4 -17 -3 -5 8 8 8 37 16 64
20 l50 5 -40 -12 -40 -13 69 -52 c38 -29 71 -50 73 -48 5 4 -23 115 -31 123
-2 3 -29 9 -58 13 l-53 8 66 1 c65 1 66 1 120 55 34 34 58 50 64 44 6 -6 6
-11 -1 -16z m-141 11 c-13 -2 -33 -2 -45 0 -13 2 -3 4 22 4 25 0 35 -2 23 -4z
m85 0 c-10 -2 -28 -2 -40 0 -13 2 -5 4 17 4 22 1 32 -1 23 -4z m-668 -6 c0 -2
-12 -14 -27 -28 l-26 -24 19 27 c16 23 34 36 34 25z m-145 -16 c3 -5 1 -12 -5
-16 -5 -3 -10 1 -10 9 0 18 6 21 15 7z m212 -13 c-3 -8 -6 -5 -6 6 -1 11 2 17
5 13 3 -3 4 -12 1 -19z m0 -70 c-2 -13 -4 -5 -4 17 -1 22 1 32 4 23 2 -10 2
-28 0 -40z m231 -50 c21 -34 29 -55 23 -61 -6 -6 -15 -4 -25 6 -11 11 -12 17
-4 19 8 3 0 25 -21 64 -33 62 -28 56 27 -28z m112 49 c0 -2 -15 -16 -32 -33
l-33 -29 29 33 c28 30 36 37 36 29z m10 -51 c0 -2 -11 -11 -25 -20 -14 -9 -25
-13 -25 -8 0 5 10 14 23 20 27 13 27 13 27 8z m297 -63 c-3 -10 -5 -2 -5 17 0
19 2 27 5 18 2 -10 2 -26 0 -35z m-472 7 c-3 -5 -12 -10 -18 -10 -7 0 -6 4 3
10 19 12 23 12 15 0z"/>
<path d="M2214 3027 c-12 -7 -36 -25 -54 -40 -38 -33 -30 -50 20 -45 28 3 35
9 51 51 20 49 17 54 -17 34z"/>
<path d="M2920 2857 c0 -42 3 -49 26 -58 15 -5 28 -8 29 -7 2 2 -10 28 -26 58
l-28 55 -1 -48z"/>
<path d="M2780 2765 c0 -8 31 -119 35 -122 1 -2 26 5 55 15 l54 19 -60 40
c-76 51 -84 56 -84 48z"/>
<path d="M3007 2708 c3 -35 9 -66 12 -71 4 -4 20 20 36 53 16 33 27 61 24 64
-2 2 -20 6 -41 10 l-36 7 5 -63z"/>
<path d="M2966 2715 c-23 -35 -20 -51 16 -76 27 -20 31 -20 25 -5 -4 10 -7 38
-7 62 0 50 -10 55 -34 19z"/>
<path d="M3059 2666 c-19 -42 -42 -77 -52 -79 -9 -3 -14 -1 -11 5 6 9 -43 68
-57 68 -7 0 -59 -145 -59 -164 0 -11 104 2 145 20 18 7 59 29 92 49 l58 35
-50 1 c-31 1 -39 4 -22 6 26 4 28 8 22 31 -15 63 -26 102 -29 102 -2 0 -18
-33 -37 -74z"/>
<path d="M3124 2693 c2 -10 7 -33 11 -50 5 -26 12 -33 31 -33 l24 0 -31 50
c-32 52 -44 63 -35 33z"/>
<path d="M2863 2647 c-17 -7 -34 -15 -37 -18 -6 -5 32 -129 39 -129 2 0 13 30
26 68 12 37 24 73 27 80 5 15 -12 14 -55 -1z"/>
<path d="M2762 2612 c-50 -16 -51 -15 37 -77 59 -43 59 -43 22 51 l-16 41 -43
-15z"/>
<path d="M2262 2576 l-44 -22 41 -16 c45 -18 46 -17 56 30 8 38 4 38 -53 8z"/>
<path d="M3057 2343 c-9 -31 -15 -58 -14 -60 6 -5 107 41 107 48 0 4 -17 21
-39 38 l-38 31 -16 -57z"/>
<path d="M1605 2348 c-17 -18 -41 -45 -54 -60 l-24 -28 49 16 c67 22 77 34 67
73 l-8 32 -30 -33z"/>
<path d="M1822 2344 l-33 -14 42 -63 c23 -34 43 -64 45 -66 2 -2 0 30 -3 70
-3 41 -8 77 -12 80 -3 4 -21 0 -39 -7z"/>
<path d="M2806 2328 c-3 -13 -12 -44 -20 -69 l-14 -46 41 10 c23 5 46 13 50
17 9 8 -31 110 -43 110 -4 0 -11 -10 -14 -22z"/>
<path d="M2456 2303 c-11 -3 -25 -10 -31 -17 -10 -9 -45 -100 -45 -115 0 -6
87 91 108 121 14 19 9 21 -32 11z"/>
<path d="M2550 2227 l-34 -21 45 -12 c24 -6 45 -10 47 -9 1 1 -4 16 -11 33
l-13 31 -34 -22z"/>
<path d="M2680 2178 c-19 -5 -36 -11 -38 -13 -5 -4 42 -75 49 -75 3 0 18 23
33 50 30 56 27 59 -44 38z"/>
</g>
</svg>
